<mxfile host="app.diagrams.net" agent="Mozilla/5.0 (Windows NT 10.0; Win64; x64) AppleWebKit/537.36 (KHTML, like Gecko) Chrome/135.0.0.0 Safari/537.36 OPR/120.0.0.0" version="28.1.0">
  <diagram name="Page-1" id="7kPaKQXR3iuH5PO8yjWx">
    <mxGraphModel dx="1040" dy="562" grid="1" gridSize="10" guides="1" tooltips="1" connect="1" arrows="1" fold="1" page="1" pageScale="1" pageWidth="850" pageHeight="1100" math="0" shadow="0">
      <root>
        <mxCell id="0" />
        <mxCell id="1" parent="0" />
        <mxCell id="lDjEUW-LYz-9-h9RT8an-48" style="edgeStyle=orthogonalEdgeStyle;rounded=0;orthogonalLoop=1;jettySize=auto;html=1;exitX=1;exitY=0.5;exitDx=0;exitDy=0;entryX=0;entryY=0.5;entryDx=0;entryDy=0;" edge="1" parent="1" source="lDjEUW-LYz-9-h9RT8an-1" target="lDjEUW-LYz-9-h9RT8an-2">
          <mxGeometry relative="1" as="geometry" />
        </mxCell>
        <mxCell id="lDjEUW-LYz-9-h9RT8an-1" value="" style="rounded=0;whiteSpace=wrap;html=1;strokeColor=#000000;fillColor=#3399FF;" vertex="1" parent="1">
          <mxGeometry x="40" y="80" width="2" height="80" as="geometry" />
        </mxCell>
        <mxCell id="lDjEUW-LYz-9-h9RT8an-53" style="edgeStyle=orthogonalEdgeStyle;rounded=0;orthogonalLoop=1;jettySize=auto;html=1;exitX=1;exitY=0.5;exitDx=0;exitDy=0;entryX=0;entryY=0.5;entryDx=0;entryDy=0;" edge="1" parent="1" source="lDjEUW-LYz-9-h9RT8an-2" target="lDjEUW-LYz-9-h9RT8an-4">
          <mxGeometry relative="1" as="geometry" />
        </mxCell>
        <mxCell id="lDjEUW-LYz-9-h9RT8an-2" value="" style="rounded=0;whiteSpace=wrap;html=1;fillColor=#3399FF;strokeColor=#000000;" vertex="1" parent="1">
          <mxGeometry x="57" y="80" width="8" height="80" as="geometry" />
        </mxCell>
        <mxCell id="lDjEUW-LYz-9-h9RT8an-97" style="edgeStyle=orthogonalEdgeStyle;rounded=0;orthogonalLoop=1;jettySize=auto;html=1;entryX=0.5;entryY=0;entryDx=0;entryDy=0;strokeColor=#00FF00;" edge="1" parent="1" source="lDjEUW-LYz-9-h9RT8an-4" target="lDjEUW-LYz-9-h9RT8an-9">
          <mxGeometry relative="1" as="geometry" />
        </mxCell>
        <mxCell id="lDjEUW-LYz-9-h9RT8an-108" style="edgeStyle=orthogonalEdgeStyle;rounded=0;orthogonalLoop=1;jettySize=auto;html=1;entryX=0;entryY=0.5;entryDx=0;entryDy=0;dashed=1;strokeColor=#CC6600;" edge="1" parent="1" source="lDjEUW-LYz-9-h9RT8an-4" target="lDjEUW-LYz-9-h9RT8an-91">
          <mxGeometry relative="1" as="geometry" />
        </mxCell>
        <mxCell id="lDjEUW-LYz-9-h9RT8an-4" value="" style="rounded=0;whiteSpace=wrap;html=1;fillColor=#3399FF;strokeColor=#000000;" vertex="1" parent="1">
          <mxGeometry x="80" y="80" width="8" height="80" as="geometry" />
        </mxCell>
        <mxCell id="lDjEUW-LYz-9-h9RT8an-65" style="edgeStyle=orthogonalEdgeStyle;rounded=0;orthogonalLoop=1;jettySize=auto;html=1;" edge="1" parent="1" source="lDjEUW-LYz-9-h9RT8an-9" target="lDjEUW-LYz-9-h9RT8an-10">
          <mxGeometry relative="1" as="geometry" />
        </mxCell>
        <mxCell id="lDjEUW-LYz-9-h9RT8an-9" value="" style="rounded=0;whiteSpace=wrap;html=1;fillColor=#3399FF;strokeColor=#000000;" vertex="1" parent="1">
          <mxGeometry x="80" y="180" width="8" height="40" as="geometry" />
        </mxCell>
        <mxCell id="lDjEUW-LYz-9-h9RT8an-66" style="edgeStyle=orthogonalEdgeStyle;rounded=0;orthogonalLoop=1;jettySize=auto;html=1;exitX=1;exitY=0.5;exitDx=0;exitDy=0;entryX=0;entryY=0.5;entryDx=0;entryDy=0;" edge="1" parent="1" source="lDjEUW-LYz-9-h9RT8an-10" target="lDjEUW-LYz-9-h9RT8an-54">
          <mxGeometry relative="1" as="geometry" />
        </mxCell>
        <mxCell id="lDjEUW-LYz-9-h9RT8an-10" value="" style="rounded=0;whiteSpace=wrap;html=1;fillColor=#3399FF;strokeColor=#000000;" vertex="1" parent="1">
          <mxGeometry x="103" y="180" width="16" height="40" as="geometry" />
        </mxCell>
        <mxCell id="lDjEUW-LYz-9-h9RT8an-98" style="edgeStyle=orthogonalEdgeStyle;rounded=0;orthogonalLoop=1;jettySize=auto;html=1;entryX=0.5;entryY=0;entryDx=0;entryDy=0;strokeColor=#00FF00;" edge="1" parent="1" source="lDjEUW-LYz-9-h9RT8an-54" target="lDjEUW-LYz-9-h9RT8an-55">
          <mxGeometry relative="1" as="geometry" />
        </mxCell>
        <mxCell id="lDjEUW-LYz-9-h9RT8an-107" style="edgeStyle=orthogonalEdgeStyle;rounded=0;orthogonalLoop=1;jettySize=auto;html=1;entryX=0;entryY=0.5;entryDx=0;entryDy=0;dashed=1;strokeColor=#CC6600;" edge="1" parent="1" source="lDjEUW-LYz-9-h9RT8an-54" target="lDjEUW-LYz-9-h9RT8an-87">
          <mxGeometry relative="1" as="geometry" />
        </mxCell>
        <mxCell id="lDjEUW-LYz-9-h9RT8an-54" value="" style="rounded=0;whiteSpace=wrap;html=1;fillColor=#3399FF;strokeColor=#000000;" vertex="1" parent="1">
          <mxGeometry x="135" y="180" width="16" height="40" as="geometry" />
        </mxCell>
        <mxCell id="lDjEUW-LYz-9-h9RT8an-67" style="edgeStyle=orthogonalEdgeStyle;rounded=0;orthogonalLoop=1;jettySize=auto;html=1;exitX=1;exitY=0.5;exitDx=0;exitDy=0;entryX=0;entryY=0.5;entryDx=0;entryDy=0;" edge="1" parent="1" source="lDjEUW-LYz-9-h9RT8an-55" target="lDjEUW-LYz-9-h9RT8an-56">
          <mxGeometry relative="1" as="geometry" />
        </mxCell>
        <mxCell id="lDjEUW-LYz-9-h9RT8an-55" value="" style="rounded=0;whiteSpace=wrap;html=1;fillColor=#3399FF;strokeColor=#000000;" vertex="1" parent="1">
          <mxGeometry x="135" y="240" width="16" height="20" as="geometry" />
        </mxCell>
        <mxCell id="lDjEUW-LYz-9-h9RT8an-68" style="edgeStyle=orthogonalEdgeStyle;rounded=0;orthogonalLoop=1;jettySize=auto;html=1;exitX=1;exitY=0.5;exitDx=0;exitDy=0;" edge="1" parent="1" source="lDjEUW-LYz-9-h9RT8an-56" target="lDjEUW-LYz-9-h9RT8an-57">
          <mxGeometry relative="1" as="geometry" />
        </mxCell>
        <mxCell id="lDjEUW-LYz-9-h9RT8an-56" value="" style="rounded=0;whiteSpace=wrap;html=1;fillColor=#3399FF;strokeColor=#000000;" vertex="1" parent="1">
          <mxGeometry x="166" y="240" width="32" height="20" as="geometry" />
        </mxCell>
        <mxCell id="lDjEUW-LYz-9-h9RT8an-99" style="edgeStyle=orthogonalEdgeStyle;rounded=0;orthogonalLoop=1;jettySize=auto;html=1;entryX=0.5;entryY=0;entryDx=0;entryDy=0;strokeColor=#00FF00;" edge="1" parent="1" source="lDjEUW-LYz-9-h9RT8an-57" target="lDjEUW-LYz-9-h9RT8an-58">
          <mxGeometry relative="1" as="geometry" />
        </mxCell>
        <mxCell id="lDjEUW-LYz-9-h9RT8an-106" style="edgeStyle=orthogonalEdgeStyle;rounded=0;orthogonalLoop=1;jettySize=auto;html=1;dashed=1;strokeColor=#CC6600;" edge="1" parent="1" source="lDjEUW-LYz-9-h9RT8an-57">
          <mxGeometry relative="1" as="geometry">
            <mxPoint x="750" y="250" as="targetPoint" />
          </mxGeometry>
        </mxCell>
        <mxCell id="lDjEUW-LYz-9-h9RT8an-57" value="" style="rounded=0;whiteSpace=wrap;html=1;fillColor=#3399FF;strokeColor=#000000;" vertex="1" parent="1">
          <mxGeometry x="213" y="240" width="32" height="20" as="geometry" />
        </mxCell>
        <mxCell id="lDjEUW-LYz-9-h9RT8an-69" style="edgeStyle=orthogonalEdgeStyle;rounded=0;orthogonalLoop=1;jettySize=auto;html=1;exitX=1;exitY=0.5;exitDx=0;exitDy=0;" edge="1" parent="1" source="lDjEUW-LYz-9-h9RT8an-58" target="lDjEUW-LYz-9-h9RT8an-59">
          <mxGeometry relative="1" as="geometry" />
        </mxCell>
        <mxCell id="lDjEUW-LYz-9-h9RT8an-58" value="" style="rounded=0;whiteSpace=wrap;html=1;fillColor=#3399FF;strokeColor=#000000;" vertex="1" parent="1">
          <mxGeometry x="213" y="280" width="32" height="10" as="geometry" />
        </mxCell>
        <mxCell id="lDjEUW-LYz-9-h9RT8an-70" style="edgeStyle=orthogonalEdgeStyle;rounded=0;orthogonalLoop=1;jettySize=auto;html=1;exitX=1;exitY=0.5;exitDx=0;exitDy=0;entryX=0;entryY=0.5;entryDx=0;entryDy=0;" edge="1" parent="1" source="lDjEUW-LYz-9-h9RT8an-59" target="lDjEUW-LYz-9-h9RT8an-60">
          <mxGeometry relative="1" as="geometry" />
        </mxCell>
        <mxCell id="lDjEUW-LYz-9-h9RT8an-59" value="" style="rounded=0;whiteSpace=wrap;html=1;fillColor=#3399FF;strokeColor=#000000;" vertex="1" parent="1">
          <mxGeometry x="260" y="280" width="64" height="10" as="geometry" />
        </mxCell>
        <mxCell id="lDjEUW-LYz-9-h9RT8an-100" style="edgeStyle=orthogonalEdgeStyle;rounded=0;orthogonalLoop=1;jettySize=auto;html=1;entryX=0.5;entryY=0;entryDx=0;entryDy=0;strokeColor=#00FF00;" edge="1" parent="1" source="lDjEUW-LYz-9-h9RT8an-60" target="lDjEUW-LYz-9-h9RT8an-61">
          <mxGeometry relative="1" as="geometry" />
        </mxCell>
        <mxCell id="lDjEUW-LYz-9-h9RT8an-105" style="edgeStyle=orthogonalEdgeStyle;rounded=0;orthogonalLoop=1;jettySize=auto;html=1;entryX=0;entryY=0.5;entryDx=0;entryDy=0;dashed=1;strokeColor=#CC6600;" edge="1" parent="1" source="lDjEUW-LYz-9-h9RT8an-60" target="lDjEUW-LYz-9-h9RT8an-79">
          <mxGeometry relative="1" as="geometry" />
        </mxCell>
        <mxCell id="lDjEUW-LYz-9-h9RT8an-60" value="" style="rounded=0;whiteSpace=wrap;html=1;fillColor=#3399FF;strokeColor=#000000;" vertex="1" parent="1">
          <mxGeometry x="339" y="280" width="64" height="10" as="geometry" />
        </mxCell>
        <mxCell id="lDjEUW-LYz-9-h9RT8an-71" style="edgeStyle=orthogonalEdgeStyle;rounded=0;orthogonalLoop=1;jettySize=auto;html=1;exitX=1;exitY=0.5;exitDx=0;exitDy=0;entryX=0;entryY=0.5;entryDx=0;entryDy=0;" edge="1" parent="1" source="lDjEUW-LYz-9-h9RT8an-61" target="lDjEUW-LYz-9-h9RT8an-62">
          <mxGeometry relative="1" as="geometry" />
        </mxCell>
        <mxCell id="lDjEUW-LYz-9-h9RT8an-61" value="" style="rounded=0;whiteSpace=wrap;html=1;fillColor=#3399FF;strokeColor=#000000;" vertex="1" parent="1">
          <mxGeometry x="339" y="310" width="64" height="5" as="geometry" />
        </mxCell>
        <mxCell id="lDjEUW-LYz-9-h9RT8an-72" value="" style="edgeStyle=orthogonalEdgeStyle;rounded=0;orthogonalLoop=1;jettySize=auto;html=1;" edge="1" parent="1" source="lDjEUW-LYz-9-h9RT8an-62" target="lDjEUW-LYz-9-h9RT8an-63">
          <mxGeometry relative="1" as="geometry" />
        </mxCell>
        <mxCell id="lDjEUW-LYz-9-h9RT8an-62" value="" style="rounded=0;whiteSpace=wrap;html=1;fillColor=#3399FF;strokeColor=#000000;" vertex="1" parent="1">
          <mxGeometry x="418" y="310" width="128" height="5" as="geometry" />
        </mxCell>
        <mxCell id="lDjEUW-LYz-9-h9RT8an-101" style="edgeStyle=orthogonalEdgeStyle;rounded=0;orthogonalLoop=1;jettySize=auto;html=1;entryX=0.5;entryY=1;entryDx=0;entryDy=0;strokeColor=#FF0000;" edge="1" parent="1" source="lDjEUW-LYz-9-h9RT8an-63" target="lDjEUW-LYz-9-h9RT8an-78">
          <mxGeometry relative="1" as="geometry" />
        </mxCell>
        <mxCell id="lDjEUW-LYz-9-h9RT8an-63" value="" style="rounded=0;whiteSpace=wrap;html=1;fillColor=#3399FF;strokeColor=#000000;" vertex="1" parent="1">
          <mxGeometry x="561" y="310" width="128" height="5" as="geometry" />
        </mxCell>
        <mxCell id="lDjEUW-LYz-9-h9RT8an-112" style="edgeStyle=orthogonalEdgeStyle;rounded=0;orthogonalLoop=1;jettySize=auto;html=1;exitX=1;exitY=0.5;exitDx=0;exitDy=0;entryX=0;entryY=0.5;entryDx=0;entryDy=0;" edge="1" parent="1" source="lDjEUW-LYz-9-h9RT8an-78" target="lDjEUW-LYz-9-h9RT8an-80">
          <mxGeometry relative="1" as="geometry" />
        </mxCell>
        <mxCell id="lDjEUW-LYz-9-h9RT8an-78" value="" style="rounded=0;whiteSpace=wrap;html=1;fillColor=#FF9999;strokeColor=#000000;" vertex="1" parent="1">
          <mxGeometry x="561" y="280" width="128" height="10" as="geometry" />
        </mxCell>
        <mxCell id="lDjEUW-LYz-9-h9RT8an-79" value="" style="rounded=0;whiteSpace=wrap;html=1;fillColor=#FFFFFF;strokeColor=#000000;" vertex="1" parent="1">
          <mxGeometry x="497" y="280" width="64" height="10" as="geometry" />
        </mxCell>
        <mxCell id="lDjEUW-LYz-9-h9RT8an-113" style="edgeStyle=orthogonalEdgeStyle;rounded=0;orthogonalLoop=1;jettySize=auto;html=1;entryX=0;entryY=0.5;entryDx=0;entryDy=0;" edge="1" parent="1" source="lDjEUW-LYz-9-h9RT8an-80" target="lDjEUW-LYz-9-h9RT8an-81">
          <mxGeometry relative="1" as="geometry" />
        </mxCell>
        <mxCell id="lDjEUW-LYz-9-h9RT8an-80" value="" style="rounded=0;whiteSpace=wrap;html=1;fillColor=#FF9999;strokeColor=#000000;" vertex="1" parent="1">
          <mxGeometry x="704" y="280" width="64" height="10" as="geometry" />
        </mxCell>
        <mxCell id="lDjEUW-LYz-9-h9RT8an-102" style="edgeStyle=orthogonalEdgeStyle;rounded=0;orthogonalLoop=1;jettySize=auto;html=1;entryX=0.5;entryY=1;entryDx=0;entryDy=0;strokeColor=#FF0000;" edge="1" parent="1" source="lDjEUW-LYz-9-h9RT8an-81" target="lDjEUW-LYz-9-h9RT8an-82">
          <mxGeometry relative="1" as="geometry" />
        </mxCell>
        <mxCell id="lDjEUW-LYz-9-h9RT8an-81" value="" style="rounded=0;whiteSpace=wrap;html=1;fillColor=#FF9999;strokeColor=#000000;" vertex="1" parent="1">
          <mxGeometry x="783" y="280" width="64" height="10" as="geometry" />
        </mxCell>
        <mxCell id="lDjEUW-LYz-9-h9RT8an-115" style="edgeStyle=orthogonalEdgeStyle;rounded=0;orthogonalLoop=1;jettySize=auto;html=1;exitX=1;exitY=0.5;exitDx=0;exitDy=0;entryX=0;entryY=0.5;entryDx=0;entryDy=0;" edge="1" parent="1" source="lDjEUW-LYz-9-h9RT8an-82" target="lDjEUW-LYz-9-h9RT8an-84">
          <mxGeometry relative="1" as="geometry" />
        </mxCell>
        <mxCell id="lDjEUW-LYz-9-h9RT8an-82" value="" style="rounded=0;whiteSpace=wrap;html=1;fillColor=#FF9999;strokeColor=#000000;" vertex="1" parent="1">
          <mxGeometry x="783" y="240" width="64" height="20" as="geometry" />
        </mxCell>
        <mxCell id="lDjEUW-LYz-9-h9RT8an-83" value="" style="rounded=0;whiteSpace=wrap;html=1;fillColor=#FFFFFF;strokeColor=#000000;" vertex="1" parent="1">
          <mxGeometry x="751" y="240" width="32" height="20" as="geometry" />
        </mxCell>
        <mxCell id="lDjEUW-LYz-9-h9RT8an-116" style="edgeStyle=orthogonalEdgeStyle;rounded=0;orthogonalLoop=1;jettySize=auto;html=1;entryX=0;entryY=0.5;entryDx=0;entryDy=0;" edge="1" parent="1" source="lDjEUW-LYz-9-h9RT8an-84" target="lDjEUW-LYz-9-h9RT8an-85">
          <mxGeometry relative="1" as="geometry" />
        </mxCell>
        <mxCell id="lDjEUW-LYz-9-h9RT8an-84" value="" style="rounded=0;whiteSpace=wrap;html=1;fillColor=#FF9999;strokeColor=#000000;" vertex="1" parent="1">
          <mxGeometry x="862" y="240" width="32" height="20" as="geometry" />
        </mxCell>
        <mxCell id="lDjEUW-LYz-9-h9RT8an-103" style="edgeStyle=orthogonalEdgeStyle;rounded=0;orthogonalLoop=1;jettySize=auto;html=1;exitX=0.5;exitY=0;exitDx=0;exitDy=0;entryX=0.5;entryY=1;entryDx=0;entryDy=0;strokeColor=#FF0000;" edge="1" parent="1" source="lDjEUW-LYz-9-h9RT8an-85" target="lDjEUW-LYz-9-h9RT8an-86">
          <mxGeometry relative="1" as="geometry" />
        </mxCell>
        <mxCell id="lDjEUW-LYz-9-h9RT8an-85" value="" style="rounded=0;whiteSpace=wrap;html=1;fillColor=#FF9999;strokeColor=#000000;" vertex="1" parent="1">
          <mxGeometry x="909" y="240" width="32" height="20" as="geometry" />
        </mxCell>
        <mxCell id="lDjEUW-LYz-9-h9RT8an-117" style="edgeStyle=orthogonalEdgeStyle;rounded=0;orthogonalLoop=1;jettySize=auto;html=1;exitX=1;exitY=0.5;exitDx=0;exitDy=0;entryX=0;entryY=0.5;entryDx=0;entryDy=0;" edge="1" parent="1" source="lDjEUW-LYz-9-h9RT8an-86" target="lDjEUW-LYz-9-h9RT8an-88">
          <mxGeometry relative="1" as="geometry" />
        </mxCell>
        <mxCell id="lDjEUW-LYz-9-h9RT8an-86" value="" style="rounded=0;whiteSpace=wrap;html=1;fillColor=#FF9999;strokeColor=#000000;" vertex="1" parent="1">
          <mxGeometry x="909" y="180" width="32" height="40" as="geometry" />
        </mxCell>
        <mxCell id="lDjEUW-LYz-9-h9RT8an-87" value="" style="rounded=0;whiteSpace=wrap;html=1;fillColor=#FFFFFF;strokeColor=#000000;" vertex="1" parent="1">
          <mxGeometry x="893" y="180" width="16" height="40" as="geometry" />
        </mxCell>
        <mxCell id="lDjEUW-LYz-9-h9RT8an-118" style="edgeStyle=orthogonalEdgeStyle;rounded=0;orthogonalLoop=1;jettySize=auto;html=1;entryX=0;entryY=0.5;entryDx=0;entryDy=0;" edge="1" parent="1" source="lDjEUW-LYz-9-h9RT8an-88" target="lDjEUW-LYz-9-h9RT8an-89">
          <mxGeometry relative="1" as="geometry" />
        </mxCell>
        <mxCell id="lDjEUW-LYz-9-h9RT8an-88" value="" style="rounded=0;whiteSpace=wrap;html=1;fillColor=#FF9999;strokeColor=#000000;" vertex="1" parent="1">
          <mxGeometry x="956" y="180" width="16" height="40" as="geometry" />
        </mxCell>
        <mxCell id="lDjEUW-LYz-9-h9RT8an-104" style="edgeStyle=orthogonalEdgeStyle;rounded=0;orthogonalLoop=1;jettySize=auto;html=1;exitX=0.5;exitY=0;exitDx=0;exitDy=0;entryX=0.5;entryY=1;entryDx=0;entryDy=0;strokeColor=#FF0000;" edge="1" parent="1" source="lDjEUW-LYz-9-h9RT8an-89" target="lDjEUW-LYz-9-h9RT8an-90">
          <mxGeometry relative="1" as="geometry" />
        </mxCell>
        <mxCell id="lDjEUW-LYz-9-h9RT8an-89" value="" style="rounded=0;whiteSpace=wrap;html=1;fillColor=#FF9999;strokeColor=#000000;" vertex="1" parent="1">
          <mxGeometry x="987" y="180" width="16" height="40" as="geometry" />
        </mxCell>
        <mxCell id="lDjEUW-LYz-9-h9RT8an-119" style="edgeStyle=orthogonalEdgeStyle;rounded=0;orthogonalLoop=1;jettySize=auto;html=1;entryX=0;entryY=0.5;entryDx=0;entryDy=0;" edge="1" parent="1" source="lDjEUW-LYz-9-h9RT8an-90" target="lDjEUW-LYz-9-h9RT8an-92">
          <mxGeometry relative="1" as="geometry" />
        </mxCell>
        <mxCell id="lDjEUW-LYz-9-h9RT8an-90" value="" style="rounded=0;whiteSpace=wrap;html=1;fillColor=#FF9999;strokeColor=#000000;" vertex="1" parent="1">
          <mxGeometry x="987" y="80" width="16" height="80" as="geometry" />
        </mxCell>
        <mxCell id="lDjEUW-LYz-9-h9RT8an-91" value="" style="rounded=0;whiteSpace=wrap;html=1;fillColor=#FFFFFF;strokeColor=#000000;" vertex="1" parent="1">
          <mxGeometry x="979" y="80" width="8" height="80" as="geometry" />
        </mxCell>
        <mxCell id="lDjEUW-LYz-9-h9RT8an-120" style="edgeStyle=orthogonalEdgeStyle;rounded=0;orthogonalLoop=1;jettySize=auto;html=1;entryX=0;entryY=0.5;entryDx=0;entryDy=0;" edge="1" parent="1" source="lDjEUW-LYz-9-h9RT8an-92" target="lDjEUW-LYz-9-h9RT8an-93">
          <mxGeometry relative="1" as="geometry" />
        </mxCell>
        <mxCell id="lDjEUW-LYz-9-h9RT8an-92" value="" style="rounded=0;whiteSpace=wrap;html=1;fillColor=#FF9999;strokeColor=#000000;" vertex="1" parent="1">
          <mxGeometry x="1018" y="80" width="8" height="80" as="geometry" />
        </mxCell>
        <mxCell id="lDjEUW-LYz-9-h9RT8an-109" style="edgeStyle=orthogonalEdgeStyle;rounded=0;orthogonalLoop=1;jettySize=auto;html=1;exitX=1;exitY=0.5;exitDx=0;exitDy=0;entryX=0;entryY=0.5;entryDx=0;entryDy=0;strokeColor=#FF00FF;" edge="1" parent="1" source="lDjEUW-LYz-9-h9RT8an-93" target="lDjEUW-LYz-9-h9RT8an-94">
          <mxGeometry relative="1" as="geometry" />
        </mxCell>
        <mxCell id="lDjEUW-LYz-9-h9RT8an-93" value="" style="rounded=0;whiteSpace=wrap;html=1;fillColor=#FF9999;strokeColor=#000000;" vertex="1" parent="1">
          <mxGeometry x="1041" y="80" width="8" height="80" as="geometry" />
        </mxCell>
        <mxCell id="lDjEUW-LYz-9-h9RT8an-94" value="" style="rounded=0;whiteSpace=wrap;html=1;fillColor=#FF9999;strokeColor=#000000;" vertex="1" parent="1">
          <mxGeometry x="1064" y="80" width="8" height="80" as="geometry" />
        </mxCell>
        <mxCell id="lDjEUW-LYz-9-h9RT8an-122" style="edgeStyle=orthogonalEdgeStyle;rounded=0;orthogonalLoop=1;jettySize=auto;html=1;strokeColor=#00FF00;" edge="1" parent="1">
          <mxGeometry relative="1" as="geometry">
            <mxPoint x="446.5" y="440" as="sourcePoint" />
            <mxPoint x="516.5" y="440" as="targetPoint" />
            <Array as="points">
              <mxPoint x="476.5" y="440" />
              <mxPoint x="476.5" y="440" />
            </Array>
          </mxGeometry>
        </mxCell>
        <mxCell id="lDjEUW-LYz-9-h9RT8an-123" style="edgeStyle=orthogonalEdgeStyle;rounded=0;orthogonalLoop=1;jettySize=auto;html=1;dashed=1;strokeColor=#CC6600;" edge="1" parent="1">
          <mxGeometry relative="1" as="geometry">
            <mxPoint x="446.5" y="460" as="sourcePoint" />
            <mxPoint x="516.5" y="460" as="targetPoint" />
          </mxGeometry>
        </mxCell>
        <mxCell id="lDjEUW-LYz-9-h9RT8an-125" style="edgeStyle=orthogonalEdgeStyle;rounded=0;orthogonalLoop=1;jettySize=auto;html=1;strokeColor=#FF0000;" edge="1" parent="1">
          <mxGeometry relative="1" as="geometry">
            <mxPoint x="466.5" y="480" as="sourcePoint" />
            <mxPoint x="516.5" y="480" as="targetPoint" />
            <Array as="points">
              <mxPoint x="446.5" y="480" />
              <mxPoint x="446.5" y="480" />
            </Array>
          </mxGeometry>
        </mxCell>
        <mxCell id="lDjEUW-LYz-9-h9RT8an-126" style="edgeStyle=orthogonalEdgeStyle;rounded=0;orthogonalLoop=1;jettySize=auto;html=1;" edge="1" parent="1">
          <mxGeometry relative="1" as="geometry">
            <mxPoint x="446.5" y="420" as="sourcePoint" />
            <mxPoint x="516.5" y="420" as="targetPoint" />
            <Array as="points">
              <mxPoint x="486.5" y="420" />
              <mxPoint x="486.5" y="420" />
            </Array>
          </mxGeometry>
        </mxCell>
        <mxCell id="lDjEUW-LYz-9-h9RT8an-127" style="edgeStyle=orthogonalEdgeStyle;rounded=0;orthogonalLoop=1;jettySize=auto;html=1;exitX=1;exitY=0.5;exitDx=0;exitDy=0;strokeColor=#FF00FF;" edge="1" parent="1">
          <mxGeometry relative="1" as="geometry">
            <mxPoint x="446.5" y="500" as="sourcePoint" />
            <mxPoint x="516.5" y="500" as="targetPoint" />
          </mxGeometry>
        </mxCell>
        <mxCell id="lDjEUW-LYz-9-h9RT8an-128" value="&lt;font style=&quot;font-size: 15px;&quot;&gt;1&lt;/font&gt;" style="text;html=1;align=center;verticalAlign=middle;whiteSpace=wrap;rounded=0;" vertex="1" parent="1">
          <mxGeometry x="30.5" y="60" width="21" height="20" as="geometry" />
        </mxCell>
        <mxCell id="lDjEUW-LYz-9-h9RT8an-131" value="&lt;span style=&quot;font-size: 15px;&quot;&gt;4&lt;/span&gt;" style="text;html=1;align=center;verticalAlign=middle;whiteSpace=wrap;rounded=0;" vertex="1" parent="1">
          <mxGeometry x="50.5" y="60" width="21" height="20" as="geometry" />
        </mxCell>
        <mxCell id="lDjEUW-LYz-9-h9RT8an-132" value="&lt;span style=&quot;font-size: 15px;&quot;&gt;4&lt;/span&gt;" style="text;html=1;align=center;verticalAlign=middle;whiteSpace=wrap;rounded=0;" vertex="1" parent="1">
          <mxGeometry x="73.5" y="60" width="21" height="20" as="geometry" />
        </mxCell>
        <mxCell id="lDjEUW-LYz-9-h9RT8an-133" value="&lt;span style=&quot;font-size: 15px;&quot;&gt;8&lt;/span&gt;" style="text;html=1;align=center;verticalAlign=middle;whiteSpace=wrap;rounded=0;" vertex="1" parent="1">
          <mxGeometry x="100.5" y="160" width="21" height="20" as="geometry" />
        </mxCell>
        <mxCell id="lDjEUW-LYz-9-h9RT8an-134" value="&lt;span style=&quot;font-size: 15px;&quot;&gt;8&lt;/span&gt;" style="text;html=1;align=center;verticalAlign=middle;whiteSpace=wrap;rounded=0;" vertex="1" parent="1">
          <mxGeometry x="132.5" y="160" width="21" height="20" as="geometry" />
        </mxCell>
        <mxCell id="lDjEUW-LYz-9-h9RT8an-135" value="&lt;span style=&quot;font-size: 15px;&quot;&gt;16&lt;/span&gt;" style="text;html=1;align=center;verticalAlign=middle;whiteSpace=wrap;rounded=0;" vertex="1" parent="1">
          <mxGeometry x="171.5" y="220" width="21" height="20" as="geometry" />
        </mxCell>
        <mxCell id="lDjEUW-LYz-9-h9RT8an-136" value="&lt;span style=&quot;font-size: 15px;&quot;&gt;16&lt;/span&gt;" style="text;html=1;align=center;verticalAlign=middle;whiteSpace=wrap;rounded=0;" vertex="1" parent="1">
          <mxGeometry x="218.5" y="220" width="21" height="20" as="geometry" />
        </mxCell>
        <mxCell id="lDjEUW-LYz-9-h9RT8an-137" value="&lt;span style=&quot;font-size: 15px;&quot;&gt;32&lt;/span&gt;" style="text;html=1;align=center;verticalAlign=middle;whiteSpace=wrap;rounded=0;" vertex="1" parent="1">
          <mxGeometry x="281.5" y="260" width="21" height="20" as="geometry" />
        </mxCell>
        <mxCell id="lDjEUW-LYz-9-h9RT8an-138" value="&lt;span style=&quot;font-size: 15px;&quot;&gt;32&lt;/span&gt;" style="text;html=1;align=center;verticalAlign=middle;whiteSpace=wrap;rounded=0;" vertex="1" parent="1">
          <mxGeometry x="360.5" y="260" width="21" height="20" as="geometry" />
        </mxCell>
        <mxCell id="lDjEUW-LYz-9-h9RT8an-139" value="&lt;span style=&quot;font-size: 15px;&quot;&gt;64&lt;/span&gt;" style="text;html=1;align=center;verticalAlign=middle;whiteSpace=wrap;rounded=0;" vertex="1" parent="1">
          <mxGeometry x="471.5" y="320" width="21" height="20" as="geometry" />
        </mxCell>
        <mxCell id="lDjEUW-LYz-9-h9RT8an-140" value="&lt;span style=&quot;font-size: 15px;&quot;&gt;64&lt;/span&gt;" style="text;html=1;align=center;verticalAlign=middle;whiteSpace=wrap;rounded=0;" vertex="1" parent="1">
          <mxGeometry x="614.5" y="320" width="21" height="20" as="geometry" />
        </mxCell>
        <mxCell id="lDjEUW-LYz-9-h9RT8an-141" value="&lt;span style=&quot;font-size: 15px;&quot;&gt;96&lt;/span&gt;" style="text;html=1;align=center;verticalAlign=middle;whiteSpace=wrap;rounded=0;" vertex="1" parent="1">
          <mxGeometry x="590" y="260" width="21" height="20" as="geometry" />
        </mxCell>
        <mxCell id="lDjEUW-LYz-9-h9RT8an-142" value="&lt;span style=&quot;font-size: 15px;&quot;&gt;32&lt;/span&gt;" style="text;html=1;align=center;verticalAlign=middle;whiteSpace=wrap;rounded=0;" vertex="1" parent="1">
          <mxGeometry x="725.5" y="290" width="21" height="20" as="geometry" />
        </mxCell>
        <mxCell id="lDjEUW-LYz-9-h9RT8an-143" value="&lt;span style=&quot;font-size: 15px;&quot;&gt;32&lt;/span&gt;" style="text;html=1;align=center;verticalAlign=middle;whiteSpace=wrap;rounded=0;" vertex="1" parent="1">
          <mxGeometry x="804.5" y="290" width="21" height="20" as="geometry" />
        </mxCell>
        <mxCell id="lDjEUW-LYz-9-h9RT8an-144" value="&lt;span style=&quot;font-size: 15px;&quot;&gt;48&lt;/span&gt;" style="text;html=1;align=center;verticalAlign=middle;whiteSpace=wrap;rounded=0;" vertex="1" parent="1">
          <mxGeometry x="790" y="220" width="21" height="20" as="geometry" />
        </mxCell>
        <mxCell id="lDjEUW-LYz-9-h9RT8an-145" value="&lt;span style=&quot;font-size: 15px;&quot;&gt;48&lt;/span&gt;" style="text;html=1;align=center;verticalAlign=middle;whiteSpace=wrap;rounded=0;" vertex="1" parent="1">
          <mxGeometry x="790" y="220" width="21" height="20" as="geometry" />
        </mxCell>
        <mxCell id="lDjEUW-LYz-9-h9RT8an-146" value="&lt;span style=&quot;font-size: 15px;&quot;&gt;16&lt;/span&gt;" style="text;html=1;align=center;verticalAlign=middle;whiteSpace=wrap;rounded=0;" vertex="1" parent="1">
          <mxGeometry x="867.5" y="260" width="21" height="20" as="geometry" />
        </mxCell>
        <mxCell id="lDjEUW-LYz-9-h9RT8an-147" value="&lt;span style=&quot;font-size: 15px;&quot;&gt;16&lt;/span&gt;" style="text;html=1;align=center;verticalAlign=middle;whiteSpace=wrap;rounded=0;" vertex="1" parent="1">
          <mxGeometry x="914.5" y="260" width="21" height="20" as="geometry" />
        </mxCell>
        <mxCell id="lDjEUW-LYz-9-h9RT8an-148" value="&lt;span style=&quot;font-size: 15px;&quot;&gt;24&lt;/span&gt;" style="text;html=1;align=center;verticalAlign=middle;whiteSpace=wrap;rounded=0;" vertex="1" parent="1">
          <mxGeometry x="909" y="160" width="21" height="20" as="geometry" />
        </mxCell>
        <mxCell id="lDjEUW-LYz-9-h9RT8an-149" value="&lt;div&gt;&lt;span style=&quot;font-size: 15px; background-color: transparent; color: light-dark(rgb(0, 0, 0), rgb(255, 255, 255));&quot;&gt;8&lt;/span&gt;&lt;/div&gt;" style="text;html=1;align=center;verticalAlign=middle;whiteSpace=wrap;rounded=0;" vertex="1" parent="1">
          <mxGeometry x="953.5" y="220" width="21" height="20" as="geometry" />
        </mxCell>
        <mxCell id="lDjEUW-LYz-9-h9RT8an-150" value="&lt;div&gt;&lt;span style=&quot;font-size: 15px; background-color: transparent; color: light-dark(rgb(0, 0, 0), rgb(255, 255, 255));&quot;&gt;8&lt;/span&gt;&lt;/div&gt;" style="text;html=1;align=center;verticalAlign=middle;whiteSpace=wrap;rounded=0;" vertex="1" parent="1">
          <mxGeometry x="984.5" y="220" width="21" height="20" as="geometry" />
        </mxCell>
        <mxCell id="lDjEUW-LYz-9-h9RT8an-151" value="&lt;span style=&quot;font-size: 15px;&quot;&gt;12&lt;/span&gt;" style="text;html=1;align=center;verticalAlign=middle;whiteSpace=wrap;rounded=0;" vertex="1" parent="1">
          <mxGeometry x="982" y="60" width="21" height="20" as="geometry" />
        </mxCell>
        <mxCell id="lDjEUW-LYz-9-h9RT8an-152" value="&lt;span style=&quot;font-size: 15px;&quot;&gt;4&lt;/span&gt;" style="text;html=1;align=center;verticalAlign=middle;whiteSpace=wrap;rounded=0;" vertex="1" parent="1">
          <mxGeometry x="1011.5" y="60" width="21" height="20" as="geometry" />
        </mxCell>
        <mxCell id="lDjEUW-LYz-9-h9RT8an-153" value="&lt;span style=&quot;font-size: 15px;&quot;&gt;4&lt;/span&gt;" style="text;html=1;align=center;verticalAlign=middle;whiteSpace=wrap;rounded=0;" vertex="1" parent="1">
          <mxGeometry x="1034.5" y="60" width="21" height="20" as="geometry" />
        </mxCell>
        <mxCell id="lDjEUW-LYz-9-h9RT8an-154" value="&lt;span style=&quot;font-size: 15px;&quot;&gt;4&lt;/span&gt;" style="text;html=1;align=center;verticalAlign=middle;whiteSpace=wrap;rounded=0;" vertex="1" parent="1">
          <mxGeometry x="1057.5" y="60" width="21" height="20" as="geometry" />
        </mxCell>
        <mxCell id="lDjEUW-LYz-9-h9RT8an-155" value="Conv + BatchNorm + ReLU" style="text;html=1;align=left;verticalAlign=middle;whiteSpace=wrap;rounded=0;fontSize=15;" vertex="1" parent="1">
          <mxGeometry x="526.5" y="410" width="220" height="20" as="geometry" />
        </mxCell>
        <mxCell id="lDjEUW-LYz-9-h9RT8an-156" value="MaxPool 2" style="text;html=1;align=left;verticalAlign=middle;whiteSpace=wrap;rounded=0;fontSize=15;" vertex="1" parent="1">
          <mxGeometry x="526.5" y="430" width="110" height="20" as="geometry" />
        </mxCell>
        <mxCell id="lDjEUW-LYz-9-h9RT8an-157" value="Concat" style="text;html=1;align=left;verticalAlign=middle;whiteSpace=wrap;rounded=0;fontSize=15;" vertex="1" parent="1">
          <mxGeometry x="526.5" y="450" width="90" height="20" as="geometry" />
        </mxCell>
        <mxCell id="lDjEUW-LYz-9-h9RT8an-158" value="UpConv 2 + Zero Padding" style="text;html=1;align=left;verticalAlign=middle;whiteSpace=wrap;rounded=0;fontSize=15;" vertex="1" parent="1">
          <mxGeometry x="526.5" y="470" width="210" height="20" as="geometry" />
        </mxCell>
        <mxCell id="lDjEUW-LYz-9-h9RT8an-159" value="Output Conv" style="text;html=1;align=left;verticalAlign=middle;whiteSpace=wrap;rounded=0;fontSize=15;" vertex="1" parent="1">
          <mxGeometry x="526.5" y="490" width="100" height="20" as="geometry" />
        </mxCell>
        <mxCell id="lDjEUW-LYz-9-h9RT8an-160" value="&lt;font style=&quot;font-size: 15px;&quot;&gt;Encoder&lt;br&gt;Block 1&lt;/font&gt;" style="text;html=1;align=center;verticalAlign=middle;whiteSpace=wrap;rounded=0;" vertex="1" parent="1">
          <mxGeometry x="15" y="30" width="79.5" height="30" as="geometry" />
        </mxCell>
        <mxCell id="lDjEUW-LYz-9-h9RT8an-161" value="&lt;font style=&quot;font-size: 15px;&quot;&gt;Encoder&lt;br&gt;Block 2&lt;/font&gt;" style="text;html=1;align=center;verticalAlign=middle;whiteSpace=wrap;rounded=0;" vertex="1" parent="1">
          <mxGeometry x="94.5" y="130" width="79.5" height="30" as="geometry" />
        </mxCell>
        <mxCell id="lDjEUW-LYz-9-h9RT8an-162" value="&lt;font style=&quot;font-size: 15px;&quot;&gt;Encoder&lt;br&gt;Block 3&lt;/font&gt;" style="text;html=1;align=center;verticalAlign=middle;whiteSpace=wrap;rounded=0;" vertex="1" parent="1">
          <mxGeometry x="166" y="185" width="79.5" height="30" as="geometry" />
        </mxCell>
        <mxCell id="lDjEUW-LYz-9-h9RT8an-163" value="&lt;font style=&quot;font-size: 15px;&quot;&gt;Encoder&lt;br&gt;Block 4&lt;/font&gt;" style="text;html=1;align=center;verticalAlign=middle;whiteSpace=wrap;rounded=0;" vertex="1" parent="1">
          <mxGeometry x="290" y="230" width="79.5" height="30" as="geometry" />
        </mxCell>
        <mxCell id="lDjEUW-LYz-9-h9RT8an-164" value="&lt;font style=&quot;font-size: 15px;&quot;&gt;Encoder Block 5&lt;/font&gt;" style="text;html=1;align=center;verticalAlign=middle;whiteSpace=wrap;rounded=0;" vertex="1" parent="1">
          <mxGeometry x="467" y="340" width="149.5" height="30" as="geometry" />
        </mxCell>
        <mxCell id="lDjEUW-LYz-9-h9RT8an-165" value="&lt;font style=&quot;font-size: 15px;&quot;&gt;Decoder&lt;br&gt;Block 1&lt;/font&gt;" style="text;html=1;align=center;verticalAlign=middle;whiteSpace=wrap;rounded=0;" vertex="1" parent="1">
          <mxGeometry x="771" y="310" width="79.5" height="30" as="geometry" />
        </mxCell>
        <mxCell id="lDjEUW-LYz-9-h9RT8an-169" value="&lt;font style=&quot;font-size: 15px;&quot;&gt;Decoder&lt;br&gt;Block 2&lt;/font&gt;" style="text;html=1;align=center;verticalAlign=middle;whiteSpace=wrap;rounded=0;" vertex="1" parent="1">
          <mxGeometry x="885.25" y="280" width="79.5" height="30" as="geometry" />
        </mxCell>
        <mxCell id="lDjEUW-LYz-9-h9RT8an-170" value="&lt;font style=&quot;font-size: 15px;&quot;&gt;Decoder&lt;br&gt;Block 3&lt;/font&gt;" style="text;html=1;align=center;verticalAlign=middle;whiteSpace=wrap;rounded=0;" vertex="1" parent="1">
          <mxGeometry x="961.5" y="240" width="79.5" height="30" as="geometry" />
        </mxCell>
        <mxCell id="lDjEUW-LYz-9-h9RT8an-171" value="&lt;font style=&quot;font-size: 15px;&quot;&gt;Decoder&lt;br&gt;Block 4&lt;/font&gt;" style="text;html=1;align=center;verticalAlign=middle;whiteSpace=wrap;rounded=0;" vertex="1" parent="1">
          <mxGeometry x="969.5" y="30" width="79.5" height="30" as="geometry" />
        </mxCell>
      </root>
    </mxGraphModel>
  </diagram>
</mxfile>
